<?xml version="1.0" standalone="no"?><!DOCTYPE svg PUBLIC "-//W3C//DTD SVG 1.1//EN" "http://www.w3.org/Graphics/SVG/1.1/DTD/svg11.dtd"><svg t="1607924692979" class="icon" viewBox="0 0 1439 1024" version="1.1" xmlns="http://www.w3.org/2000/svg" p-id="24707" xmlns:xlink="http://www.w3.org/1999/xlink" width="179.875" height="128"><defs><style type="text/css"></style></defs><path d="M903.908894 325.3248l1.505882 2.641318-595.754164 342.18767-1.505883-2.641317z" p-id="24708"></path><path d="M1.511906 392.378729l1094.089788 627.757177-1.511906 2.638306L0 395.014024zM145.841694 319.457882l1086.765177 621.182494-1.51793 2.635295L144.323765 322.090165zM353.111341 199.155953l1085.955012 623.113035-1.511906 2.635294L351.599435 201.788235z" p-id="24709"></path><path d="M1384.794353 720.344847l1.511906 2.635294-491.541083 281.066918-1.514917-2.635294zM1132.938541 572.2112l1.505883 2.641318-504.603106 284.897882-1.505883-2.638306zM922.901082 432.453271l1.566118 2.605176L419.207529 736.761976l-1.566117-2.605176z" p-id="24710"></path><path d="M589.543906 423.634824l3.087059 1.764894 0.162635-59.006494-3.084047-1.764895z" p-id="24711"></path><path d="M592.6912 364.628329l-0.168659 57.316895-222.015247 24.726588 0.162635-57.316894z" p-id="24712"></path><path d="M367.534682 390.710212l-0.174682 59.00047 3.078024-1.764894 0.174682-59.009506z" p-id="24713"></path><path d="M242.675953 448.096376l155.057694 89.732518 0.168659-57.584941-155.226353-91.120941z" p-id="24714"></path><path d="M738.785882 361.592471l-0.17167 57.856-209.838683 121.419294 0.159624-57.871059z" p-id="24715"></path><path d="M504.425412 538.184282l-0.159624 57.374118-36.361035-21.624471 0.150588-57.374117z" p-id="24716"></path><path d="M565.2992 504.404329l-0.168659 56.618165-60.705129 34.538918 0.168659-56.6272z" p-id="24717"></path><path d="M391.812518 559.266635l-0.162636 57.563859-66.794917-39.661929 0.1536-57.572894z" p-id="24718"></path><path d="M654.134212 312.973553L313.344 348.626824l-70.668047 40.496188 154.816753 88.139294-73.667765 42.224941 69.583812 39.610729 73.667765-42.224941 38.080753 21.684706 61.190023-35.065976-38.080753-21.681694 210.51633-120.636236-84.648659-48.200282zM365.468612 389.12l3.011764-1.728753 223.06033-24.792847 3.0208 1.719718-135.878777 77.869176-93.214117-53.067294z" p-id="24719"></path><path d="M467.904753 516.5568l-0.174682 57.816847-75.917553 42.456847 0.165647-57.813835z" p-id="24720"></path><path d="M909.583059 529.703153c-3.553882-5.782588-10.059294-11.429647-19.74513-16.956235a109.447529 109.447529 0 0 0-7.110776-3.704471c-0.786071-0.367435-1.572141-0.668612-2.349177-1.011953-1.454682-0.650541-2.909365-1.322165-4.373082-1.897412-0.132518-0.0512-0.268047-0.084329-0.4096-0.129506a95.292235 95.292235 0 0 0-8.15887-2.740705c-0.060235-0.009035-0.123482-0.036141-0.18673-0.054212a90.425224 90.425224 0 0 0-6.496376-1.578165c-0.213835-0.042165-0.421647-0.087341-0.632471-0.12047-1.144471-0.231906-2.304-0.424659-3.493647-0.593318a75.562165 75.562165 0 0 0-4.120094-0.448753c-0.060235-0.009035-0.135529 0-0.195765-0.009035-0.126494-0.009035-0.249976-0.009035-0.367435-0.018071a79.299765 79.299765 0 0 0-3.882165-0.210823c-1.195671-0.027106-2.427482 0-3.659294 0.027105-0.313224 0-0.6144-0.009035-0.936659 0-0.159624 0.009035-0.322259 0-0.490917 0-2.069082 0.069271-4.186353 0.210824-6.336753 0.421647-0.322259 0.036141-0.662588 0.105412-0.981836 0.141553-1.409506 0.150588-2.873224 0.388518-4.327906 0.602353-1.286024 0.180706-2.535906 0.298165-3.855058 0.536094-0.752941 0.132518-1.508894 0.271059-2.276894 0.421648a153.419294 153.419294 0 0 0-9.592471 2.240752c-1.081224 0.289129-2.222682 0.641506-3.321977 0.960753-1.792 0.512-3.541835 0.966776-5.391058 1.551059-0.427671 0.138541-0.891482 0.325271-1.319153 0.466824-2.680471 0.861365-5.451294 1.867294-8.255247 2.891294-1.349271 0.490918-2.650353 0.924612-4.035765 1.45167a309.362447 309.362447 0 0 0-13.101177 5.388048c-16.877929 7.402918-36.984471 17.769412-60.135905 31.060329a958.491106 958.491106 0 0 0-14.760659 8.637741c-0.367435 0.219859-0.677647 0.421647-1.045083 0.641506-1.174588 0.695718-2.240753 1.367341-3.373176 2.054024-3.523765 2.141365-6.927059 4.240565-10.128565 6.26447-1.409506 0.894494-2.767812 1.764894-4.105035 2.629271-2.8672 1.852235-5.571765 3.632188-8.158871 5.376-1.123388 0.758965-2.300988 1.542024-3.373176 2.282917a309.820235 309.820235 0 0 0-9.667765 6.912 176.317741 176.317741 0 0 0-7.951059 6.324706c-0.713788 0.602353-1.373365 1.183624-2.051011 1.776941-0.831247 0.719812-1.7408 1.460706-2.5088 2.165459-0.837271 0.768-1.526965 1.490824-2.291953 2.237741-0.608376 0.590306-1.234824 1.180612-1.804047 1.764895a73.833412 73.833412 0 0 0-4.900142 5.4272l-0.123482 0.141552a43.899482 43.899482 0 0 0-3.764706 5.472377l-0.126494 0.222871c-0.777035 1.385412-1.421553 2.722635-1.918494 4.053835-0.144565 0.379482-0.207812 0.731859-0.322259 1.111341a25.985506 25.985506 0 0 0-0.322259 1.108329c-0.123482 0.421647-0.295153 0.864376-0.382494 1.289036-0.213835 1.048094-0.331294 2.078118-0.367435 3.084047v0.451764l-0.168659 57.473506c0.009035-1.560094 0.301176-3.171388 0.749929-4.818823a27.660047 27.660047 0 0 1 2.569036-6.276518 43.128471 43.128471 0 0 1 3.8912-5.692235c0.036141-0.048188 0.081318-0.090353 0.117459-0.144565a76.149459 76.149459 0 0 1 4.909176-5.4272c0.560188-0.572235 1.195671-1.174588 1.801035-1.764894a127.500047 127.500047 0 0 1 4.803765-4.406212c0.677647-0.590306 1.337224-1.174588 2.051012-1.770917a195.195482 195.195482 0 0 1 7.942023-6.33073c2.927435-2.192565 6.204235-4.511624 9.667765-6.899953 1.078212-0.749929 2.246776-1.523953 3.382212-2.288941 2.578071-1.737788 5.291671-3.529788 8.146823-5.369976 1.349271-0.873412 2.704565-1.746824 4.105036-2.635294a708.285741 708.285741 0 0 1 10.131576-6.258448c1.144471-0.695718 2.204612-1.355294 3.382212-2.063058 4.978447-2.996706 10.209882-6.071718 15.805741-9.279247 23.151435-13.293929 43.248941-23.648376 60.135906-31.063342 4.496565-1.972706 8.854588-3.743624 13.083106-5.376 1.400471-0.536094 2.722635-0.978824 4.086965-1.469741 2.785882-1.024 5.550682-2.017882 8.222117-2.882259a194.466635 194.466635 0 0 1 6.701177-2.017882c1.105318-0.310212 2.240753-0.671624 3.318964-0.963765a163.186447 163.186447 0 0 1 9.595483-2.237741c2.108235-0.406588 4.114071-0.662588 6.140988-0.960753 1.445647-0.201788 2.9184-0.451765 4.318871-0.599341a98.072094 98.072094 0 0 1 7.818541-0.5632c0.310212-0.009035 0.623435 0.009035 0.933647 0 2.581082-0.045176 5.098918 0.009035 7.535435 0.183718 0.123482 0.009035 0.249976 0.009035 0.364424 0.01807 2.695529 0.210824 5.300706 0.554165 7.818541 1.048094 2.445553 0.475859 4.882071 1.0752 7.309553 1.764895 2.731671 0.774024 5.451294 1.692612 8.167906 2.73167 1.596235 0.608376 3.186447 1.322165 4.773647 2.026918 0.783059 0.352376 1.572141 0.644518 2.349176 1.014964 2.379294 1.135435 4.755576 2.361224 7.110777 3.701459 9.682824 5.526588 16.191247 11.173647 19.742117 16.956236 1.554071 2.575059 2.328094 5.3248 2.319059 8.222117l0.162635-57.473506a15.576847 15.576847 0 0 0-2.313035-8.222117" p-id="24721"></path><path d="M1007.670212 549.815718c-0.150588 0.906541-0.4096 1.834165-0.623436 2.749741a48.131012 48.131012 0 0 1-1.608282 5.499482c-0.186729 0.512-0.337318 1.024-0.533082 1.536-1.017976 2.614212-2.304 5.270588-3.803859 7.966118-0.427671 0.758965-0.873412 1.523953-1.328188 2.288941a94.171859 94.171859 0 0 1-3.864094 5.878965c-0.758965 1.060141-1.554071 2.126306-2.376283 3.201506a123.1872 123.1872 0 0 1-6.113882 7.306541c-0.623435 0.713788-1.231812 1.409506-1.891388 2.132329a181.022118 181.022118 0 0 1-6.79153 6.927059 187.759435 187.759435 0 0 1-5.550682 5.089882c-0.783059 0.692706-1.572141 1.400471-2.382306 2.105224-1.596235 1.373365-3.267765 2.767812-4.969412 4.168282-0.743906 0.599341-1.439624 1.189647-2.198588 1.798024a309.428706 309.428706 0 0 1-7.836612 6.083764c-0.283106 0.216847-0.596329 0.439718-0.891482 0.650542-2.481694 1.8432-5.059765 3.719529-7.740235 5.613929-0.978824 0.686682-1.9968 1.385412-3.005742 2.078118-2.096188 1.457694-4.228518 2.921412-6.445176 4.400188-1.165553 0.777035-2.3552 1.560094-3.559906 2.346165-2.237741 1.469741-4.541741 2.960565-6.896941 4.448376-1.168565 0.752941-2.331106 1.490824-3.523765 2.240753-2.999718 1.876329-6.089788 3.770729-9.258165 5.674165-0.605365 0.361412-1.174588 0.731859-1.792 1.09327a717.640282 717.640282 0 0 1-12.586164 7.378824c-35.4304 20.341459-67.668329 35.448471-96.457788 45.321035-5.141082 1.761882-10.119529 3.234635-15.110024 4.725459a312.943435 312.943435 0 0 1-20.847435 5.553694c-3.499671 0.810165-6.9632 1.557082-10.381553 2.228706-3.213553 0.626447-6.381929 1.171576-9.5232 1.674541-3.442447 0.545129-6.851765 1.024-10.218918 1.418541-4.650165 0.545129-9.306353 1.111341-13.793882 1.367342-5.2224 0.301176-10.312282 0.352376-15.353977 0.32527-1.096282-0.009035-2.222682 0.036141-3.300894 0.018071a214.106353 214.106353 0 0 1-15.227482-0.873412c-1.195671-0.114447-2.364235-0.265035-3.541835-0.397553a180.555294 180.555294 0 0 1-11.986824-1.707671c-1.150494-0.195765-2.310024-0.370447-3.454494-0.593317a172.833129 172.833129 0 0 1-14.760659-3.472565 262.1952 262.1952 0 0 1-13.833035-4.397176c-1.385412-0.475859-2.758776-0.993882-4.141177-1.496847a275.8144 275.8144 0 0 1-19.856564-8.222118c-1.7408-0.795106-3.499671-1.554071-5.2224-2.391341a275.817412 275.817412 0 0 1-16.384-8.574494c-18.974118-10.815247-33.810071-22.187671-44.333177-34.075106-8.583529-9.706918-12.860235-20.106541-12.824094-31.192847l-0.159624 57.482541c-0.036141 11.089318 4.237553 21.479906 12.824095 31.183812 10.523106 11.890447 25.347012 23.262871 44.321129 34.084141a273.176094 273.176094 0 0 0 16.396047 8.56847c1.722729 0.837271 3.469553 1.596235 5.210353 2.397365a268.667482 268.667482 0 0 0 11.736847 5.0688c0.963765 0.394541 1.909459 0.873412 2.882259 1.249882 1.7408 0.671624 3.508706 1.261929 5.258541 1.903436 1.373365 0.502965 2.740706 1.014965 4.123106 1.490823a267.9808 267.9808 0 0 0 14.366118 4.5568c4.089976 1.144471 8.258259 2.1504 12.486776 3.023812 0.572235 0.114447 1.168565 0.183718 1.7408 0.301176 1.144471 0.210824 2.313035 0.385506 3.472565 0.587295 2.096188 0.361412 4.168282 0.783059 6.300612 1.084235 1.855247 0.256 3.773741 0.415624 5.659105 0.617412 1.186635 0.132518 2.364235 0.292141 3.559906 0.397553 0.740894 0.069271 1.463718 0.183718 2.204612 0.246964 3.954447 0.316235 7.969129 0.527059 12.047059 0.626447 0.313224 0.006024 0.644518-0.009035 0.9728 0 1.081224 0.015059 2.204612-0.030118 3.29487-0.01807 3.050918 0.018071 6.095812 0.060235 9.209977-0.045177a294.327718 294.327718 0 0 0 6.140988-0.283106 253.506259 253.506259 0 0 0 9.09553-0.704753c1.536-0.150588 3.147294-0.475859 4.701364-0.650541a258.514824 258.514824 0 0 0 10.218918-1.427576c1.641412-0.256 3.213553-0.379482 4.873035-0.671624 1.517929-0.271059 3.114165-0.704753 4.650165-1.002917 3.427388-0.671624 6.890918-1.421553 10.390588-2.228706a318.494118 318.494118 0 0 0 20.847435-5.553694c1.936565-0.572235 3.800847-1.014965 5.764518-1.632377 3.078024-0.978824 6.192188-2.008847 9.336471-3.093082 28.798494-9.872565 61.027388-24.979576 96.466823-45.321035a784.456282 784.456282 0 0 0 12.559059-7.360753c0.659576-0.397553 1.264941-0.774024 1.915482-1.162542 3.132235-1.897412 6.186165-3.764706 9.149742-5.622964 1.195671-0.752941 2.349176-1.490824 3.523764-2.228706a523.495906 523.495906 0 0 0 10.450824-6.806588 468.931765 468.931765 0 0 0 6.463247-4.397177c0.999906-0.698729 2.026918-1.394447 2.999718-2.081129a380.837647 380.837647 0 0 0 7.719152-5.595859c0.295153-0.222871 0.623435-0.451765 0.918589-0.671624a309.428706 309.428706 0 0 0 7.836611-6.083764c0.758965-0.605365 1.454682-1.195671 2.186542-1.795012a200.899765 200.899765 0 0 0 7.363764-6.276518c0.659576-0.590306 1.3824-1.189647 2.023906-1.779953 1.213741-1.111341 2.382306-2.213647 3.523765-3.303906a180.621553 180.621553 0 0 0 6.785506-6.927058c0.662588-0.7168 1.264941-1.421553 1.900423-2.126306 1.418541-1.5872 2.785882-3.1744 4.059859-4.734494 0.313224-0.376471 0.689694-0.774024 0.993883-1.153506 0.373459-0.475859 0.677647-0.942682 1.04207-1.418541 0.840282-1.0752 1.632376-2.1504 2.391341-3.216565 0.653553-0.909553 1.276988-1.825129 1.882353-2.725647 0.698729-1.054118 1.349271-2.105224 1.972706-3.144283 0.313224-0.521035 0.689694-1.051106 0.981835-1.560094 0.144565-0.246965 0.2048-0.484894 0.349365-0.731859 1.505882-2.698541 2.782871-5.351906 3.800847-7.969129 0.063247-0.150588 0.171671-0.316235 0.222871-0.466823 0.144565-0.361412 0.189741-0.695718 0.313223-1.05713 0.662588-1.861271 1.204706-3.692424 1.614306-5.511529 0.081318-0.349365 0.240941-0.722824 0.313224-1.084236 0.117459-0.551153 0.213835-1.108329 0.301176-1.662494 0.331294-2.017882 0.530071-4.011671 0.584283-5.984376 0.015059-0.397553 0.015059-0.783059 0.015058-1.174588l0.171671-57.473506a45.637271 45.637271 0 0 1-0.599341 7.155953" p-id="24722"></path><path d="M767.433788 641.343247c16.883953-7.402918 37.098918-17.838682 60.641883-31.352471 23.160471-13.290918 41.216-24.828988 54.103341-34.505788 12.896376-9.679812 21.543153-18.290447 25.991529-25.798776 4.433318-7.499294 4.906165-14.164329 1.406494-19.983059-3.550871-5.782588-10.059294-11.429647-19.739106-16.956235-9.694871-5.526588-19.654776-9.264188-29.711058-11.24593-10.185788-1.975718-21.832282-1.686588-34.933459 0.879436-13.101176 2.566024-28.120847 7.535435-45.007812 14.9504-16.883953 7.402918-36.984471 17.769412-60.144941 31.060329-23.552 13.510776-41.712941 25.109082-54.609318 34.797929-12.896376 9.6768-21.419671 18.2272-25.524706 25.533742-4.105035 7.306541-4.409224 13.872188-0.858353 19.654776 3.445459 5.791624 10.068329 11.441694 19.751153 16.965271 9.691859 5.517553 19.537318 9.255153 29.711059 11.239905 10.128565 2.017882 21.597365 1.825129 34.361224-0.557176 12.760847-2.370259 27.675106-7.279435 44.56207-14.682353m211.305412-46.043859c-17.058635 16.444235-43.197741 34.831059-78.637176 55.17553-35.433412 20.332424-67.671341 35.448471-96.4608 45.321035-28.852706 9.908706-55.521882 15.5648-79.878024 16.965271-24.410353 1.430588-46.971482-0.8192-67.623153-6.698165-20.651671-5.878965-40.466071-14.260706-59.440188-25.084988-18.974118-10.812235-33.807059-22.193694-44.327153-34.08113-10.514071-11.890447-14.567906-24.822965-12.149459-38.791529 2.367247-13.935435 12.104282-29.2352 29.159906-45.878212 17.001412-16.594824 43.248941-35.114165 78.688376-55.455624 35.442447-20.344471 67.562918-35.318965 96.415624-45.031905 28.852706-9.712941 55.395388-15.239529 79.646118-16.57073 24.238682-1.340235 46.7456 1.005929 67.568941 6.981271a274.513318 274.513318 0 0 1 59.723294 25.2416c18.974118 10.824282 33.641412 22.160565 44.044047 33.927529 10.345412 11.791059 14.450447 24.624188 12.200659 38.499388-2.249788 13.872188-11.8784 29.042447-28.934024 45.477647" p-id="24723"></path><path d="M1172.016188 683.330259c-5.487435-9.456941-17.441129-19.567435-35.918306-30.325459-10.194824-5.936188-22.070212-11.830212-35.638211-17.700141a400.977318 400.977318 0 0 0-12.004895-4.972424c-1.758871-0.698729-3.448471-1.292047-5.180235-1.954635-1.557082-0.584282-3.102118-1.168565-4.638117-1.728753a349.292424 349.292424 0 0 0-16.615906-5.680188l-0.162636 56.1152a352.436706 352.436706 0 0 1 16.615906 5.677176c1.536 0.560188 3.081035 1.144471 4.638118 1.737789 5.625976 2.144376 11.318212 4.391153 17.194165 6.921035 13.558965 5.866918 25.443388 11.769976 35.629176 17.700141 18.477176 10.755012 30.439906 20.874541 35.921318 30.322447 1.466729 2.556988 2.2016 5.086871 2.192564 7.589647l0.1536-56.112188c0.009035-2.505788-0.722824-5.035671-2.186541-7.589647" p-id="24724"></path><path d="M1270.368376 697.316894a32.277082 32.277082 0 0 1-0.653552 5.577788c-0.391529 1.867294-0.939671 3.743624-1.656471 5.601883a42.197835 42.197835 0 0 1-2.873224 5.954259c-0.240941 0.403576-0.481882 0.801129-0.7168 1.204705-1.054118 1.695624-2.258824 3.382212-3.620141 5.077836a71.258353 71.258353 0 0 1-7.583623 7.905882c-5.601882 5.044706-12.634353 10.053271-21.100424 15.034729-1.017976 0.602353-2.051012 1.195671-3.114165 1.798024a145.417035 145.417035 0 0 1-28.286494 12.254871 148.904659 148.904659 0 0 1-18.492235 4.463435 153.786729 153.786729 0 0 1-11.896471 1.620329 154.352941 154.352941 0 0 1-18.200094 0.635483 176.892988 176.892988 0 0 1-19.952941-1.659483 202.023153 202.023153 0 0 1-12.688565-2.153411 243.465035 243.465035 0 0 1-16.968282-4.068895c-0.629459-0.171671-1.255906-0.352376-1.885365-0.533082l-0.168658 56.121224c0.638494 0.171671 1.255906 0.352376 1.885364 0.524047a243.832471 243.832471 0 0 0 16.977318 4.080941c4.291765 0.849318 8.523294 1.572141 12.679529 2.1504 3.565929 0.499953 7.077647 0.867388 10.5472 1.153506 3.1744 0.256 6.315671 0.421647 9.414777 0.490917 3.014776 0.075294 5.987388 0.066259 8.92687-0.036141a141.402353 141.402353 0 0 0 9.261177-0.593317 153.196424 153.196424 0 0 0 11.902494-1.608283 147.546353 147.546353 0 0 0 18.498259-4.475482 145.127906 145.127906 0 0 0 28.286494-12.254871c1.054118-0.593318 2.087153-1.195671 3.114165-1.798023 8.469082-4.981459 15.501553-9.990024 21.0944-15.031718 2.921412-2.632282 5.451294-5.258541 7.580611-7.908894 1.373365-1.686588 2.575059-3.373176 3.620142-5.077835 0.246965-0.403576 0.484894-0.789082 0.7168-1.195671 1.150494-1.978729 2.105224-3.966494 2.873223-5.963294 0.7168-1.858259 1.276988-3.725553 1.656471-5.601882 0.391529-1.849224 0.602353-3.716518 0.662588-5.574777 0.009035-0.292141 0.009035-0.578259 0.009035-0.8704l0.168659-56.121223-0.018071 0.876423M1030.643953 763.488376c-8.324518-12.146447-25.527718-25.765647-51.552377-40.845552l-25.859011-14.974495-0.165647 56.982589 25.859011 14.974494c26.024659 15.070871 43.227859 28.690071 51.552377 40.836517 2.638306 3.843012 3.954447 7.607718 3.945412 11.288095l0.156611-56.964518c0.018071-3.698447-1.295059-7.463153-3.936376-11.29713" p-id="24725"></path><path d="M1120.111435 804.065882c-0.391529 1.626353-0.933647 3.222588-1.551059 4.821836-0.635482 1.659482-1.421553 3.312941-2.310023 4.939294-0.120471 0.225882-0.198776 0.4608-0.331294 0.689694a50.784376 50.784376 0 0 1-3.969506 5.903059c-0.915576 1.204706-1.897412 2.394353-2.960565 3.584-0.234918 0.271059-0.436706 0.542118-0.680659 0.804141a77.131294 77.131294 0 0 1-4.397176 4.358023 97.743812 97.743812 0 0 1-7.246306 5.978353c-0.662588 0.487906-1.376376 0.978824-2.057035 1.46673a134.204235 134.204235 0 0 1-6.915012 4.623059c-1.28 0.795106-2.481694 1.596235-3.830965 2.376282a183.591153 183.591153 0 0 1-11.541082 6.140988c-1.002918 0.496941-2.002824 0.987859-3.011765 1.457694a177.92 177.92 0 0 1-10.899576 4.746541c-0.322259 0.129506-0.644518 0.277082-0.963765 0.400565a167.541459 167.541459 0 0 1-11.688659 3.9936c-1.421553 0.445741-2.849129 0.828235-4.276706 1.231812-2.840094 0.795106-5.707294 1.520941-8.571482 2.156423-1.472753 0.331294-2.942494 0.662588-4.424282 0.95473-2.517835 0.496941-5.0688 0.882447-7.619765 1.264941-2.186541 0.325271-4.373082 0.674635-6.577694 0.918588a180.037271 180.037271 0 0 1-9.764141 0.804141c-1.045082 0.060235-2.078118 0.174682-3.132236 0.210824a185.280753 185.280753 0 0 1-13.040941 0.024094c-1.123388-0.036141-2.246776-0.120471-3.370165-0.180706a201.023247 201.023247 0 0 1-12.393411-0.927623c-3.535812-0.403576-7.140894-1.014965-10.730918-1.590212a300.830118 300.830118 0 0 1-7.508329-1.313129c-2.210635-0.436706-4.448376-0.942682-6.686118-1.430589a281.298824 281.298824 0 0 1-12.116329-3.005741c-2.258824-0.611388-4.511624-1.204706-6.794542-1.879341a278.031059 278.031059 0 0 1-6.82767-2.1504c-2.9184-0.942682-5.842824-1.912471-8.78833-2.960565a329.276235 329.276235 0 0 1-7.011388-2.587106 364.718682 364.718682 0 0 1-9.216-3.632188c-2.114259-0.873412-4.240565-1.746824-6.375906-2.674447-3.264753-1.415529-6.556612-2.9184-9.866541-4.448376-2.063059-0.960753-4.120094-1.885365-6.210259-2.891295a537.084988 537.084988 0 0 1-10.962823-5.520564c-1.798024-0.933647-3.574965-1.801035-5.376-2.761788a535.747765 535.747765 0 0 1-16.609883-9.209977c-29.979106-17.368847-53.398588-33.373365-70.330729-48.052706L771.011765 827.672094c16.932141 14.688376 40.360659 30.692894 70.330729 48.052706a546.812988 546.812988 0 0 0 16.618918 9.216c1.795012 0.954729 3.568941 1.828141 5.354917 2.746729a497.754353 497.754353 0 0 0 10.992942 5.5296c2.072094 1.005929 4.120094 1.939576 6.183153 2.891295a372.224 372.224 0 0 0 16.251482 7.128847c1.611294 0.656565 3.231624 1.391435 4.824847 2.011858 1.481788 0.584282 2.927435 1.066165 4.397176 1.626353 2.346165 0.888471 4.680282 1.752847 7.005365 2.584094 2.951529 1.048094 5.878965 2.017882 8.794353 2.95153 2.282918 0.743906 4.5568 1.475765 6.821647 2.1504 1.002918 0.3072 2.029929 0.671624 3.029835 0.951718 1.273976 0.367435 2.5088 0.587294 3.773742 0.927623 4.065882 1.108329 8.107671 2.114259 12.113317 3.005741 1.186635 0.252988 2.412424 0.635482 3.599059 0.891483 1.036047 0.210824 2.054024 0.340329 3.090071 0.533082a214.437647 214.437647 0 0 0 7.499294 1.319153c1.499859 0.240941 3.041882 0.584282 4.538729 0.783059a193.798024 193.798024 0 0 0 12.191624 1.391435c2.153412 0.174682 4.267671 0.243953 6.403011 0.349365 1.123388 0.0512 2.246776 0.138541 3.36113 0.174682 0.436706 0.018071 0.879435 0.060235 1.316141 0.078306 3.674353 0.090353 7.333647 0.078306 10.9568-0.0512 0.262024-0.009035 0.512-0.045176 0.774024-0.054212 1.054118-0.042165 2.090165-0.147576 3.135247-0.210823 2.569035-0.138541 5.150118-0.259012 7.683011-0.512 0.695718-0.072282 1.376376-0.201788 2.08113-0.28913 2.204612-0.237929 4.382118-0.587294 6.577694-0.927623 1.671529-0.243953 3.3792-0.391529 5.041694-0.69873 0.861365-0.156612 1.716706-0.391529 2.578071-0.551153a188.958118 188.958118 0 0 0 12.986729-3.117176c1.427576-0.391529 2.864188-0.786071 4.285741-1.222777 0.755953-0.228894 1.523953-0.412612 2.270871-0.647529 3.162353-1.030024 6.2976-2.138353 9.414776-3.346071 0.322259-0.132518 0.638494-0.271059 0.960753-0.400564a183.476706 183.476706 0 0 0 10.893553-4.746541c1.011953-0.481882 2.020894-0.960753 3.032847-1.457695a195.689412 195.689412 0 0 0 11.529036-6.144l2.397364-1.421553c0.502965-0.316235 0.912565-0.638494 1.418541-0.963764a119.669459 119.669459 0 0 0 6.933083-4.620047c0.680659-0.490918 1.394447-0.969788 2.057035-1.46673a93.680941 93.680941 0 0 0 7.237271-5.969317c0.096376-0.096376 0.225882-0.180706 0.322258-0.271059 1.463718-1.355294 2.812988-2.716612 4.074918-4.086965 0.252988-0.271059 0.451765-0.542118 0.689694-0.804141 0.894494-1.014965 1.792-2.017882 2.584094-3.032847 0.150588-0.174682 0.237929-0.367435 0.376471-0.551153 1.487812-1.9456 2.840094-3.921318 3.963482-5.915106l0.042165-0.0512c0.114447-0.210824 0.180706-0.427671 0.295153-0.629459 0.879435-1.641412 1.665506-3.2768 2.310023-4.945317 0.0512-0.129506 0.138541-0.271059 0.189742-0.4096a39.454118 39.454118 0 0 0 1.65647-5.76753 29.846588 29.846588 0 0 0 0.602353-5.231435c0.006024-0.280094 0.015059-0.542118 0.015059-0.813177l0.156612-56.973553a31.581365 31.581365 0 0 1-0.912565 7.399906" p-id="24726"></path><path d="M1198.411294 623.158212c18.856659 10.920659 34.376282 21.702776 46.579953 32.370447 12.245835 10.622494 20.067388 21.187765 23.506824 31.653647 3.493647 10.432753 2.168471 20.775153-3.927342 30.918776-6.095812 10.206871-17.733271 20.287247-34.855153 30.274259-17.733271 10.345412-37.050729 16.555671-57.77167 18.61873-20.766118 2.087153-43.619388-0.551153-68.608-7.890824l-2.924424 1.704659c16.600847 14.495624 23.220706 28.918965 19.699953 43.257976-3.463529 14.302871-15.588894 27.503435-36.2496 39.544471-34.255812 19.968-71.348706 27.693176-111.284706 23.1936-39.869741-4.541741-83.585506-20.549271-131.078023-48.052706-29.970071-17.368847-53.392565-33.373365-70.324706-48.052706l60.1088-35.044894a495.528659 495.528659 0 0 0 30.063435 24.4224c9.911718 7.460141 21.365459 14.938353 34.385318 22.467765a298.480941 298.480941 0 0 0 30.509176 15.432282c10.227953 4.445365 20.389647 7.505318 30.485083 9.182871 10.044235 1.701647 19.964988 1.927529 29.936941 0.707764 9.857506-1.225788 19.648753-4.674259 29.316518-10.30927 18.1248-10.565271 22.991812-21.931671 14.667294-34.066071-8.327529-12.152471-25.527718-25.774682-51.561412-40.845553l-25.849977-14.974494 53.808189-31.367529 25.353035 14.688376c23.750776 13.751718 45.802918 22.865318 66.054024 27.277553 20.311341 4.445365 39.035482 1.668518 56.160376-8.31247 15.188329-8.854588 19.961976-18.100706 14.423341-27.729318-5.601882-9.601506-17.793506-19.877647-36.641129-30.798306-10.399624-6.008471-22.524988-12.010918-36.355012-17.962165-13.778824-5.924141-26.886024-10.755012-39.213176-14.555858l56.684423-33.051106c10.435765 3.032847 23.6544 7.993224 39.767341 14.817882 16.112941 6.893929 31.120565 14.363106 45.134306 22.479812" p-id="24727"></path><path d="M1222.716235 303.673224l-0.352376 234.15567-340.5312-197.3248 0.355388-234.152659z" p-id="24728"></path><path d="M1107.061459 306.335624l-0.165647 18.793411-158.102588-96.677647 0.162635-18.7904zM1107.061459 351.915671l-0.165647 18.793411-158.102588-96.677647 0.162635-18.793411zM1009.664 343.789929l-0.165647 17.79953-60.705129-36.894118 0.165647-17.799529z" p-id="24729"></path><path d="M419.207529 97.234824a97.394447 97.234824 0 1 0 194.788895 0 97.394447 97.234824 0 1 0-194.788895 0Z" p-id="24730"></path><path d="M558.242635 86.928565h-9.005176V65.686588c0-17.799529-14.272753-32.262024-31.825318-32.262023S485.574776 47.887059 485.574776 65.686588v21.241977h-9.002164c-4.339953 0-7.860706 3.568941-7.860706 7.969129v58.169224c0 4.409224 3.520753 7.978165 7.860706 7.978164h81.679059c4.339953 0 7.860706-3.568941 7.860705-7.978164V94.900706c0-4.400188-3.520753-7.969129-7.869741-7.96913zM521.824376 125.500235v12.6976c0 0.572235-0.463812 1.054118-1.027011 1.054118h-6.764424a1.051106 1.051106 0 0 1-1.033035-1.054118V125.500235a9.908706 9.908706 0 0 1-5.376-8.8064c0-5.4784 4.388141-9.926776 9.788235-9.926776s9.7792 4.448376 9.7792 9.926776a9.872565 9.872565 0 0 1-5.366965 8.8064z m15.191342-38.57167h-39.210165v-20.720941c0-10.9568 8.809412-19.877647 19.615623-19.877648 10.812235 0 19.594541 8.920847 19.594542 19.877648v20.720941z" p-id="24731"></path></svg>