<?xml version="1.0" standalone="no"?><!DOCTYPE svg PUBLIC "-//W3C//DTD SVG 1.1//EN" "http://www.w3.org/Graphics/SVG/1.1/DTD/svg11.dtd"><svg t="1607918837122" class="icon" viewBox="0 0 2530 1024" version="1.1" xmlns="http://www.w3.org/2000/svg" p-id="18777" width="316.25" height="128" xmlns:xlink="http://www.w3.org/1999/xlink"><defs><style type="text/css"></style></defs><path d="M1270.657058 0.050777c-282.725554 0-511.856132 229.130579-511.856132 511.856132 0 127.627636 46.672397 244.321322 123.937851 333.976331 24.237488 1.785653 154.657851 6.812562 187.028099-85.195108 35.738446-101.612959-21.207802-160.793388-59.730512-187.028099l12.279537-21.216264s88.774876 55.262149 80.955239 162.460562c-7.701157 105.302744-71.341488 152.415207-199.874644 153.54076 93.014744 95.799008 223.215074 155.31795 367.260562 155.31795 184.793917 0 346.814413-97.931636 436.70638-244.871405-15.190744-24.119008-47.679471-43.668099-60.416-51.369256a396.939636 396.939636 0 0 0-17.746512-9.816859c-36.965554-19.887603-98.930248-53.044893-137.571438-125.841984-21.664793-40.765355-27.910347-88.66486-17.975009-138.358479 7.481124-37.28714 21.216264-62.413223 21.77481-63.530314l17.52648 9.715306c-0.110017 0.220033-13.066579 23.890512-19.760662 58.283371-8.936727 45.445289-3.469752 87.319273 16.189356 124.284827 35.84 67.440132 92.117686 97.584661 129.303273 117.573818 7.142612 3.799802 13.396628 7.151074 18.64357 10.383868 33.724298 20.327669 51.25924 36.847074 61.194578 49.465124 40.756893-73.474116 63.978843-158.000661 63.978843-247.884165 0-282.615537-229.122116-511.746116-511.847669-511.746116zM934.209587 533.343207c6.702545 0 16.079339 1.015537 16.079339 1.015537l-0.448529 6.804099c-2.234182-1.117091-15.63081-2.234182-15.63081-2.234182v-5.585454z m12.508033 43.329586l-2.014149-5.136925a203.953719 203.953719 0 0 1 15.30076-5.026909l2.115703 6.474049c-2.564231-0.220033-15.402314 3.689785-15.402314 3.689785z m33.495801-54.492033s-9.376793-8.488198-14.852231-13.176595c1.455603-1.675636 2.234182-2.682711 4.129851-4.798413 7.371107 5.136926 14.852231 12.609587 14.852232 12.609587l-4.129852 5.365421z m538.209323-173.741487l-6.592529-0.897058c0.558545-4.129851 4.90843-18.313521 5.475438-19.879141l6.364033 2.014149c-1.337124 4.129851-4.798413 15.63081-5.246942 18.76205z m23.331967 2.674248l-5.018447-4.349885c4.798413-5.585455 19.540628-15.520793 20.209191-15.969322l3.681322 5.585455c-4.019835 2.674248-15.292298 10.603901-18.872066 14.733752z m4.57838 30.821553l-3.232793-5.923967c4.798413-2.564231 22.773421-4.011372 26.35319-4.231405l0.440066 6.68562c-9.715306 0.787041-21.216264 2.242645-23.560463 3.469752z" p-id="18778"></path><path d="M1069.885355 760.578116c0.228496-0.558545 0.338512-1.007074 0.558546-1.56562-108.087008 9.046744-189.820826 23.001917-229.570645 30.593058a514.835041 514.835041 0 0 0 42.094017 56.167669c24.119008 1.785653 154.530909 6.922579 186.918082-85.195107z" p-id="18779"></path><path d="M1096.458579 756.998347c-20.649256 75.826777-83.070942 110.329653-193.062083 111.328265 93.014744 95.807471 223.215074 155.326413 367.260562 155.326413 179.546975 0 337.43762-92.456198 428.886744-232.371835-222.208-46.333884-439.389091-46.333884-603.085223-34.27438z" p-id="18780"></path><path d="M1098.921256 837.96205c0 11.881785 33.301157 22.866512 87.37005 28.815867 54.077355 5.940893 120.679669 5.940893 174.757025 0 54.06043-5.949355 87.37005-16.92562 87.370049-28.815867 0-11.890248-33.30962-22.874975-87.378512-28.824331-54.068893-5.940893-120.679669-5.940893-174.748562 0-54.068893 5.949355-87.37005 16.92562-87.37005 28.824331z" p-id="18781"></path><path d="M1411.791339 505.991405s32.717223-27.360264 52.816397-19.549091c20.099174 7.819636-14.513719 64.765884-23.441984 78.170975-8.936727 13.396628-36.296992 60.847603-45.225256 67.550149 0 0-3.351273 6.702545-1.117091 14.522182 2.234182 7.811174 32.378711 92.667769 17.856529 171.955835 0 0-8.928264 26.801719-32.378711 10.045355-23.441983-16.747901-48.009521-74.81124-90.442049-63.640331-42.432529 11.170909-39.081256 56.946248-37.964166 63.640331 1.117091 6.702545-11.170909 36.855537-41.315438 13.405091-30.144529-23.450446-43.54962-56.954711-25.684628-170.847207 0 0 5.585455-10.045355-5.585454-8.928264-11.162446 1.117091-78.15405 0-92.667769-13.396628-14.522182-13.405091-4.468364-25.684628 11.162446-26.801719 15.63081-1.117091 72.357025-2.454215 79.71967-23.001918 7.371107-20.547702 170.847207-107.528463 234.267504-93.12476z" p-id="18782"></path><path d="M1138.442579 495.379041a134.998744 134.998744 0 1 0 269.997487 0 134.998744 134.998744 0 1 0-269.997487 0z" p-id="18783"></path><path d="M1081.61481 451.279339c0 93.429421 75.742149 169.163107 169.163107 169.163107 93.429421 0 169.17157-75.742149 169.171571-169.17157s-75.742149-169.163107-169.171571-169.163107-169.17157 75.742149-169.17157 169.17157z" p-id="18784"></path><path d="M1008.470744 560.593455s-34.054347 1.56562-48.576529 6.144l1.125554 7.024132s45.445289-3.232793 55.380628-1.108628l-7.929653-12.059504z" p-id="18785"></path><path d="M1007.692165 559.58638s-34.054347 1.895669-48.576529 6.592529l1.235571 7.024132s45.445289-3.681322 55.380628-1.667173l-8.03967-11.949488z" p-id="18786"></path><path d="M950.517421 534.460298l-1.11709 8.936727s46.900893 12.279537 67.000066 26.801719l3.799801-8.826711-6.592529-8.818248c0.110017 0-23.111934-11.509421-63.090248-18.093487z" p-id="18787"></path><path d="M949.84886 533.343207l-1.117091 8.936727s46.900893 12.279537 67.000066 26.801719l3.799801-8.826711-6.592529-8.818248s-23.22195-11.509421-63.090247-18.093487z" p-id="18788"></path><path d="M1022.43438 553.780893s-20.099174-24.567537-37.972628-36.847075l-5.585454 6.702546s25.684628 24.559074 38.759669 40.638413l4.798413-10.493884z" p-id="18789"></path><path d="M1022.43438 552.325289s-20.099174-24.559074-37.972628-36.847074l-5.585454 6.702545s25.684628 24.567537 38.759669 40.646876l4.798413-10.493884z" p-id="18790"></path><path d="M1509.274446 399.69005l-9.495272-1.89567c2.902744-25.684628 11.610975-51.707769 11.949487-53.044892l8.488199 2.792727c0 0.338512-8.149686 25.684628-10.942414 52.147835z" p-id="18791"></path><path d="M1508.935934 399.021488l-9.48681-1.904133c2.902744-25.676165 11.610975-51.699306 11.941025-53.036429l8.488198 2.792727c0 0.338512-8.149686 25.566149-10.942413 52.147835z" p-id="18792"></path><path d="M1506.930248 403.929917l-6.364033-6.254016c15.292298-15.520793 45.216793-23.780496 46.443901-24.119008l2.352661 8.598214c-0.228496 0.110017-28.815868 8.039669-42.432529 21.77481z" p-id="18793"></path><path d="M1507.150281 403.151339l-6.364033-6.364033c15.402314-15.410777 45.445289-23.450446 46.672397-23.780496l2.234181 8.589752c-0.220033 0.228496-28.917421 7.819636-42.542545 21.554777z" p-id="18794"></path><path d="M1503.688992 403.819901l-9.48681-2.902744c12.389554-32.835702 43.43114-56.167669 44.886744-57.504793l5.915504 6.702545c-0.338512 0.338512-27.690314 22.773421-41.315438 53.704992z" p-id="18795"></path><path d="M1503.358942 402.70281l-9.495273-3.01276c12.728066-32.607207 43.879669-55.71914 45.44529-57.056265l5.805487 6.804099c-0.338512 0.228496-27.910347 22.341818-41.755504 53.264926z" p-id="18796"></path><path d="M1382.983934 465.564562s-9.376793-26.68324-29.027438-65.984529c-19.100562 39.301289-29.145917 65.984529-29.145917 65.984529a30.44919 30.44919 0 0 0 29.027438 39.749818 30.44919 30.44919 0 0 0 30.483041-30.474578 28.223471 28.223471 0 0 0-1.337124-9.27524z" p-id="18797"></path><path d="M512.143868 162.401322v695.989951h-195.744794V327.104529l-86.65071 172.30281h42.881057v151.399669H0.736264L206.746446 162.418248zM2526.165686 162.401322v695.989951h-195.744793V327.104529l-86.642248 172.30281h42.881057v151.399669h-271.78314l205.900165-488.397223z" p-id="18798"></path></svg>