<?xml version="1.0" standalone="no"?><!DOCTYPE svg PUBLIC "-//W3C//DTD SVG 1.1//EN" "http://www.w3.org/Graphics/SVG/1.1/DTD/svg11.dtd"><svg t="1607918852680" class="icon" viewBox="0 0 2473 1024" version="1.1" xmlns="http://www.w3.org/2000/svg" p-id="19938" xmlns:xlink="http://www.w3.org/1999/xlink" width="309.125" height="128"><defs><style type="text/css"></style></defs><path d="M1188.244839 0C905.447166 0 676.245225 229.20194 676.245225 511.999614a509.932294 509.932294 0 0 0 123.98119 334.055597c24.228208 1.796829 154.701166 6.839542 187.082727-85.204464 35.743369-101.627093-21.214173-160.845162-59.75905-187.082727l12.287991-21.233494s88.798122 55.295958 80.973222 162.526066c-7.708975 105.317354-71.370814 152.44064-199.931019 153.580564A510.492596 510.492596 0 0 0 1188.244839 1023.999227c184.860842 0 346.92321-97.956152 436.841935-244.948343-15.205422-24.112284-47.722228-43.664873-60.435276-51.373848a397.04121 397.04121 0 0 0-17.775081-9.834257c-36.960576-19.881042-98.94151-53.054752-137.58299-125.874622-21.67787-40.766762-27.93779-88.682197-17.987609-138.375141 7.477126-37.308349 21.214173-62.444632 21.774474-63.565235l17.543232 9.718332c-0.115924 0.231849-13.080141 23.899756-19.784438 58.309994-8.926182 45.461702-3.458412 87.329745 16.210101 124.309642 35.839973 67.468025 92.14061 97.6277 129.333035 117.605345 7.148674 3.806186 13.408594 7.148674 18.663835 10.394559 33.714692 20.325419 51.257924 36.863972 61.208104 49.480415A509.681125 509.681125 0 0 0 1700.244453 511.883689C1700.244453 229.20194 1471.042512 0 1188.244839 0zM851.716187 533.445635c6.704297 0 16.074856 1.004678 16.074856 1.004679l-0.444377 6.820221c-2.221885-1.120603-15.6498-2.241206-15.649799-2.241206v-5.603015z m12.500519 43.33642l-2.009357-5.139317c6.25992-2.453734 15.302026-5.023392 15.302026-5.023392l2.125282 6.472448c-2.569658-0.212528-15.417951 3.690261-15.417951 3.690261z m33.521484-54.503808s-9.38988-8.501126-14.87697-13.176744c1.468376-1.680904 2.241206-2.685583 4.15396-4.810865 7.361202 5.139317 14.857649 12.616443 14.857649 12.616444l-4.134639 5.371165z m538.353104-173.790057l-6.588373-0.908075c0.560301-4.115318 4.907468-18.316062 5.46777-19.881042l6.375844 2.009357c-1.352452 4.134638-4.810864 15.6498-5.255241 18.77976z m23.339454 2.666262l-5.023393-4.347167c4.810864-5.603015 19.552589-15.533875 20.209494-15.978252l3.690262 5.603015c-4.018714 2.666262-15.302026 10.587766-18.876363 14.722404z m4.579015 30.835901l-3.226564-5.912146c4.791544-2.569658 22.779153-4.038035 26.35349-4.250563l0.444377 6.704297c-9.718332 0.77283-21.214173 2.221885-23.571303 3.458412z" p-id="19939"></path><path d="M965.476705 755.247732c0.231849-0.637584 0.347773-1.120603 0.579623-1.738867-109.162182 9.988823-191.700384 25.406773-231.848882 33.791975a567.643345 567.643345 0 0 0 42.505628 62.019576c24.363453 1.990036 156.072939 7.651013 188.763631-94.092005z" p-id="19940"></path><path d="M1003.577205 760.213162c-20.537947 75.003113-82.654126 109.142861-192.086799 110.128219A509.198106 509.198106 0 0 0 1176.903565 1023.999227 509.719766 509.719766 0 0 0 1603.640752 794.121061c-221.087229-45.848116-437.189708-45.848116-600.063547-33.907899z" p-id="19941"></path><path d="M1004.697808 830.791826c0 13.814329 33.135069 26.566018 86.94333 33.463522s120.0784 6.897504 173.886662 0S1352.47113 844.606155 1352.47113 830.791826c0-13.814329-33.135069-26.566018-86.94333-33.463522s-120.0784-6.897504-173.886662 0S1004.697808 816.977497 1004.697808 830.791826z" p-id="19942"></path><path d="M1313.520518 504.039469s32.323598-27.454772 52.165998-19.610552c19.861721 7.84422-14.335989 64.99497-23.165567 78.442205-8.810258 13.427914-35.839973 61.053539-44.669551 67.777157 0 0-3.303847 6.723618-1.101282 14.567838 2.202564 7.84422 31.995146 92.990722 17.659156 172.534209 0 0-8.829578 26.913791-31.995146 10.104747-23.165567-16.809044-47.432417-75.080396-89.339102-63.874367-41.926006 11.206029-38.602839 57.150749-37.501556 63.874367 1.101282 6.723618-11.032143 36.960576-40.824724 13.447235-29.773261-23.532661-43.007968-57.150749-25.368132-171.432927 0 0 5.525732-10.085426-5.506411-8.964823-11.012822 1.120603-77.205678 0-91.541667-13.447235-14.35531-13.447235-4.424449-25.773867 11.012822-26.894471 15.456592-1.120603 71.486739-2.473055 78.770658-23.088284 7.264598-20.61523 168.747344-107.887013 231.404504-93.435099z" p-id="19943"></path><path d="M1043.339288 502.339244a135.245181 135.245181 0 1 0 270.45172 0.01932A135.245181 135.245181 0 0 0 1043.339288 502.339244z" p-id="19944"></path><path d="M985.377068 454.037393a164.226291 164.226291 0 1 0 328.41394 0.019321A164.226291 164.226291 0 0 0 985.377068 454.037393z" p-id="19945"></path><path d="M919.300136 560.301464s-34.97054 2.299168-49.847509 9.003465l1.159244 10.317275s46.601625-4.752902 56.802976-1.642263L919.300136 560.301464z" p-id="19946"></path><path d="M919.184212 560.301464s-34.873936 2.704904-49.731585 9.351238l1.255848 9.969502s46.524342-5.2166 56.706372-2.376451L919.184212 560.301464z" p-id="19947"></path><path d="M870.669833 521.659984l-1.217206 9.66037s51.199961 13.292669 73.129001 28.98111l4.153959-9.544446-7.187315-9.544445c0.115924 0-25.232887-12.423236-68.878439-19.552589z" p-id="19948"></path><path d="M870.669833 521.659984l-1.217206 9.66037s51.199961 13.292669 73.129001 28.98111l4.153959-9.544446-7.187315-9.544445S914.18014 528.808658 870.669833 521.659984z" p-id="19949"></path><path d="M927.414847 547.453172s-17.833043-30.082392-33.695371-45.113928l-4.946109 8.211314S911.57184 540.594309 923.164284 560.301464l4.250563-12.848292z" p-id="19950"></path><path d="M927.414847 547.453172s-17.833043-30.082392-33.695371-45.113928l-4.946109 8.211314S911.57184 540.594309 923.164284 560.301464l4.250563-12.848292z" p-id="19951"></path><path d="M1419.398174 405.735543L1410.433351 403.726186c2.743545-27.087678 10.97418-54.542449 11.302633-55.952864l8.018107 2.936753c0 0.367094-7.708975 27.106998-10.355917 55.025468z" p-id="19952"></path><path d="M1419.398174 405.735543L1410.433351 403.726186c2.743545-27.087678 10.97418-54.542449 11.302633-55.952864l8.018107 2.936753c0 0.367094-7.708975 26.991074-10.355917 55.025468z" p-id="19953"></path><path d="M1417.98776 405.735543L1410.433351 397.775398c18.161496-19.745796 53.711658-30.256279 55.180033-30.681335l2.782187 10.935538c-0.27049 0.154566-34.217031 10.239992-50.407811 27.705942z" p-id="19954"></path><path d="M1417.968439 405.735543l-7.535088-8.153352c18.258099-19.745796 53.866223-30.063072 55.315279-30.488128l2.646941 11.012821c-0.27049 0.289811-34.274993 10.027464-50.427132 27.628659z" p-id="19955"></path><path d="M1401.932225 405.735543l-10.819615-2.782187c14.142782-31.492806 49.557698-53.904865 51.199962-55.180034l6.762259 6.433807c-0.386415 0.309132-31.58941 21.851757-47.142606 51.528414z" p-id="19956"></path><path d="M1401.854942 405.735543L1391.11261 402.837432c14.393951-31.473486 49.634981-53.76962 51.393169-55.06411l6.569052 6.569052c-0.386415 0.212528-31.570089 21.542625-47.219889 51.393169z" p-id="19957"></path><path d="M1293.21442 466.016252s-8.906861-24.363453-27.590017-60.280709c-18.161496 35.917256-27.705941 60.280709-27.705941 60.280709a27.821866 27.821866 0 0 0-1.371773 8.481805c0 15.39863 12.944896 27.841187 28.981111 27.841187s28.98111-12.442557 28.98111-27.841187a24.865793 24.865793 0 0 0-1.29449-8.481805z" p-id="19958"></path><path d="M404.750185 154.681846V354.921996h-174.099189l-9.312597 31.686014c63.565235 17.987609 110.553275 44.051288 140.96412 78.171715C404.073959 511.11086 425.075604 566.600025 425.075604 631.363146c0 68.472703-25.542018 125.198396-76.510131 170.389607C297.636002 846.82804 233.510465 869.433306 156.09226 869.433306c-52.20464 0-103.617129-13.427914-154.469318-40.380347v-171.722738c40.418988 19.455985 76.046433 29.077714 106.805052 29.077714 31.782618 0 56.860938-7.148674 75.350886-21.484663 18.509269-14.297348 27.705941-33.67605 27.705942-58.271352 0-27.628658-14.297348-50.91015-42.776119-70.037683-28.498092-19.011608-63.681159-28.633337-105.4526-28.633337-15.881648 0-36.999217 2.898111-63.217462 8.713653L76.181678 154.565921h328.568507v0.115925zM1970.734815 586.577671v-149.697095c0-87.175179 22.508662-156.014977 67.390741-206.500071C2082.988315 179.798808 2144.177099 154.565921 2221.614625 154.565921c77.456847 0 138.722914 25.232887 183.856163 75.814584 45.094607 50.601018 67.60327 119.421495 67.60327 206.500071v149.677774c0 87.1945-22.508662 156.034297-67.62259 206.828523-45.094607 50.697622-106.379995 76.046433-183.836843 76.046433-77.437526 0-138.60699-25.348811-183.489069-76.046433-44.882079-50.813547-67.390742-119.749947-67.390741-206.828523z m200.916376-189.575103v229.45311c0 41.616874 16.731761 62.367349 50.079359 62.367349 33.695371 0 50.543056-20.750475 50.543056-62.367349V397.002568c0-41.520271-16.847685-62.38667-50.543056-62.38667-33.463522 0-50.079358 20.769796-50.079359 62.405991z" p-id="19959"></path></svg>