<?xml version="1.0" standalone="no"?><!DOCTYPE svg PUBLIC "-//W3C//DTD SVG 1.1//EN" "http://www.w3.org/Graphics/SVG/1.1/DTD/svg11.dtd"><svg t="1607926192982" class="icon" viewBox="0 0 1024 1024" version="1.1" xmlns="http://www.w3.org/2000/svg" p-id="38636" xmlns:xlink="http://www.w3.org/1999/xlink" width="32" height="32"><defs><style type="text/css"></style></defs><path d="M684.125 272.563H412.531V126.875c0-15.188-10.687-21.281-23.719-13.688L41.938 313.531c-13.124 7.5-13.124 19.782 0 27.375l346.875 200.25c13.032 7.5 23.72 1.407 23.72-13.687V381.875h271.593c109.5 0 198.563 89.063 198.563 198.656s-89.063 198.75-198.563 198.75h-444c-30.281 0-54.656 24.375-54.656 54.657s24.375 54.75 54.656 54.75h444c169.781 0 307.969-138.188 307.969-308.063 0-169.969-138.188-308.063-307.969-308.063z" p-id="38637"></path></svg>