<?xml version="1.0" standalone="no"?><!DOCTYPE svg PUBLIC "-//W3C//DTD SVG 1.1//EN" "http://www.w3.org/Graphics/SVG/1.1/DTD/svg11.dtd"><svg t="1607505563223" class="icon" viewBox="0 0 1024 1024" version="1.1" xmlns="http://www.w3.org/2000/svg" p-id="23595" xmlns:xlink="http://www.w3.org/1999/xlink" width="32" height="32"><defs><style type="text/css"></style></defs><path d="M867.3 345.7H637.7c-11 0-20-9-20-20V95.6c0-11 9-20 20-20s20 9 20 20v210.1h209.6c11 0 20 9 20 20s-8.9 20-20 20z" p-id="23596"></path><path d="M818.9 811.8H383.7c-47.8 0-86.8-35.9-86.8-80v-591c0-44.1 38.9-80 86.8-80h258.9c5.1 0 10.1 2 13.8 5.5L899.5 298c4 3.8 6.2 9 6.2 14.5v419.3c-0.1 44.2-39 80-86.8 80zM383.7 100.9c-25.8 0-46.8 17.9-46.8 40v591c0 22.1 21 40 46.8 40h435.2c25.8 0 46.8-17.9 46.8-40V321.1L634.6 100.9H383.7z" p-id="23597"></path><path d="M697.1 793.1v78.5c0 22.1-21 40-46.8 40H215.1c-25.8 0-46.8-17.9-46.8-40v-591c0-22.1 21-40 46.8-40h116.8v-40H215.1c-47.8 0-86.8 35.9-86.8 80v591c0 44.1 38.9 80 86.8 80h435.2c47.8 0 86.8-35.9 86.8-80v-78l-40-0.5z" p-id="23598"></path><path d="M758.9 483.9H437.2c-11 0-20-9-20-20s9-20 20-20h321.7c11 0 20 9 20 20s-8.9 20-20 20z m5.1 139.5H442.2c-11 0-20-9-20-20s9-20 20-20H764c11 0 20 9 20 20s-9 20-20 20z" p-id="23599"></path></svg>