<?xml version="1.0" standalone="no"?><!DOCTYPE svg PUBLIC "-//W3C//DTD SVG 1.1//EN" "http://www.w3.org/Graphics/SVG/1.1/DTD/svg11.dtd"><svg t="1607504669090" class="icon" viewBox="0 0 1024 1024" version="1.1" xmlns="http://www.w3.org/2000/svg" p-id="22762" xmlns:xlink="http://www.w3.org/1999/xlink" width="32" height="32"><defs><style type="text/css"></style></defs><path d="M528.104727 862.859636v-698.181818a58.181818 58.181818 0 1 1 116.363637 0v581.818182h225.28a17.501091 17.501091 0 0 1 8.564363 32.581818L615.144727 929.419636a58.181818 58.181818 0 0 1-87.04-50.455272v-16.104728z m-116.363636-698.181818v698.181818a58.181818 58.181818 0 1 1-116.363636 0v-581.818181H70.190545a17.501091 17.501091 0 0 1-8.657454-32.581819l263.168-150.434909a58.181818 58.181818 0 0 1 87.04 50.548364v16.104727z" p-id="22763"></path></svg>