<?xml version="1.0" standalone="no"?><!DOCTYPE svg PUBLIC "-//W3C//DTD SVG 1.1//EN" "http://www.w3.org/Graphics/SVG/1.1/DTD/svg11.dtd"><svg t="1607913590979" class="icon" viewBox="0 0 1024 1024" version="1.1" xmlns="http://www.w3.org/2000/svg" p-id="17048" xmlns:xlink="http://www.w3.org/1999/xlink" width="32" height="32"><defs><style type="text/css"></style></defs><path d="M538.4 266.24c-73.44 0-133.12-59.68-133.12-133.12S464.96 0 538.4 0s133.12 59.68 133.12 133.12-59.68 133.12-133.12 133.12zM255.04 372c-67.04 0-121.6-54.56-121.6-121.6 0-67.04 54.56-121.6 121.6-121.6 67.2 0.16 121.6 54.56 121.6 121.6 0 67.04-54.56 121.6-121.6 121.6zM134.56 647.2c-59.2 0-107.2-48-107.2-107.36a107.2 107.2 0 0 1 214.4 0c0 59.2-48 107.2-107.2 107.36zM255.04 919.84c-50.24 0-90.88-40.8-90.88-90.88 0-50.24 40.8-90.88 90.88-90.88 50.24 0 90.88 40.8 90.88 90.88s-40.8 90.88-90.88 90.88zM538.4 1024c-43.84 0-79.36-35.52-79.52-79.52 0-43.84 35.68-79.52 79.52-79.52 43.84 0 79.36 35.52 79.36 79.52A79.376 79.376 0 0 1 538.4 1024zM826.24 889.76c-35.36 0-64.16-28.8-64.16-64.16s28.8-64.16 64.16-64.16 64.16 28.8 64.16 64.16c-0.16 35.36-28.8 64-64.16 64.16zM944 592.96c-28.96 0-52.64-23.52-52.64-52.64s23.52-52.64 52.64-52.64 52.64 23.52 52.64 52.64-23.52 52.64-52.64 52.64zM785.44 254.4c0 22.56 18.24 40.8 40.8 40.8s40.8-18.24 40.8-40.8-18.24-40.8-40.8-40.8a40.672 40.672 0 0 0-40.8 40.8z" p-id="17049"></path></svg>