<?xml version="1.0" standalone="no"?><!DOCTYPE svg PUBLIC "-//W3C//DTD SVG 1.1//EN" "http://www.w3.org/Graphics/SVG/1.1/DTD/svg11.dtd"><svg t="1607573097944" class="icon" viewBox="0 0 1024 1024" version="1.1" xmlns="http://www.w3.org/2000/svg" p-id="4998" xmlns:xlink="http://www.w3.org/1999/xlink" width="32" height="32"><defs><style type="text/css"></style></defs><path d="M512 85.333333a425.386667 425.386667 0 0 1 301.568 124.842667 42.666667 42.666667 0 0 1-60.288 60.373333 341.333333 341.333333 0 1 0-0.256 483.157334 42.666667 42.666667 0 0 1 60.245333 60.416A425.386667 425.386667 0 0 1 512 938.666667C276.352 938.666667 85.333333 747.648 85.333333 512S276.352 85.333333 512 85.333333z m326.570667 306.048l90.453333 90.496a42.666667 42.666667 0 0 1 0 60.330667l-90.453333 90.538667a42.666667 42.666667 0 0 1-60.373334-60.330667l17.706667-17.749333H384a42.666667 42.666667 0 0 1 0-85.333334h411.818667l-17.621334-17.621333a42.666667 42.666667 0 1 1 60.373334-60.330667z" p-id="4999"></path></svg>