<?xml version="1.0" standalone="no"?><!DOCTYPE svg PUBLIC "-//W3C//DTD SVG 1.1//EN" "http://www.w3.org/Graphics/SVG/1.1/DTD/svg11.dtd"><svg t="1610443734916" class="icon" viewBox="0 0 1024 1024" version="1.1" xmlns="http://www.w3.org/2000/svg" p-id="1877" xmlns:xlink="http://www.w3.org/1999/xlink" width="32" height="32"><defs><style type="text/css"></style></defs><path d="M1024 555.1616V468.8384c0-17.408-12.288-32.4608-29.3888-35.84l-111.5136-22.3232a36.7104 36.7104 0 0 1-27.2896-23.552 352.9216 352.9216 0 0 0-12.3904-29.9008 36.7616 36.7616 0 0 1 2.6112-35.9424l63.0784-94.6688a36.5568 36.5568 0 0 0-4.5568-46.1312l-61.0304-61.0304a36.5568 36.5568 0 0 0-46.1312-4.608l-94.6688 63.1296a36.7616 36.7616 0 0 1-35.9424 2.56c-9.728-4.5056-19.712-8.6528-29.9008-12.288a36.7104 36.7104 0 0 1-23.552-27.2896L591.0016 29.3888a36.5568 36.5568 0 0 0-35.84-29.3888H468.8384c-17.408 0-32.4608 12.288-35.84 29.3888L410.624 140.9024a36.7104 36.7104 0 0 1-23.552 27.2896 352.9216 352.9216 0 0 0-29.9008 12.3904 36.7616 36.7616 0 0 1-35.9424-2.6112L226.6112 114.8928a36.5568 36.5568 0 0 0-46.1312 4.5568L119.4496 180.48a36.5568 36.5568 0 0 0-4.608 46.1312l63.1296 94.6688c7.1168 10.7008 8.0896 24.32 2.56 35.9424-4.5056 9.728-8.6528 19.712-12.288 29.9008a36.7104 36.7104 0 0 1-27.2896 23.552l-111.5648 22.3232a36.5568 36.5568 0 0 0-29.3888 35.84v86.3232c0 17.408 12.288 32.4096 29.3888 35.84l111.5136 22.3232c12.5952 2.56 22.9376 11.4688 27.2896 23.552 3.6864 10.1888 7.7824 20.1216 12.3904 29.9008a36.7616 36.7616 0 0 1-2.6112 35.9424l-63.0784 94.6688a36.5568 36.5568 0 0 0 4.5568 46.1312l61.0304 61.0304c12.288 12.3392 31.6416 14.2336 46.1312 4.608l94.6688-63.1296a36.7616 36.7616 0 0 1 35.9424-2.56c9.728 4.5056 19.712 8.6528 29.9008 12.288 12.0832 4.4032 20.992 14.7456 23.552 27.2896l22.3232 111.5648c3.3792 17.1008 18.432 29.3888 35.84 29.3888h86.3232c17.408 0 32.4096-12.288 35.84-29.3888l22.3232-111.5136a36.7104 36.7104 0 0 1 23.552-27.2896c10.1888-3.6864 20.1216-7.7824 29.9008-12.3904a36.7616 36.7616 0 0 1 35.9424 2.6112l94.6688 63.0784c14.4896 9.728 33.792 7.7824 46.1312-4.5568l61.0304-61.0304a36.5568 36.5568 0 0 0 4.608-46.1312l-63.1296-94.6688a36.7616 36.7616 0 0 1-2.56-35.9424c4.5056-9.728 8.6528-19.712 12.288-29.9008a36.7104 36.7104 0 0 1 27.2896-23.552l111.5648-22.3232a36.5568 36.5568 0 0 0 29.3888-35.84z m-356.864 112.0256A219.4432 219.4432 0 1 1 356.864 356.864a219.4432 219.4432 0 0 1 310.272 310.272z" p-id="1878"></path></svg>
