<?xml version="1.0" standalone="no"?><!DOCTYPE svg PUBLIC "-//W3C//DTD SVG 1.1//EN" "http://www.w3.org/Graphics/SVG/1.1/DTD/svg11.dtd"><svg t="1607484351877" class="icon" viewBox="0 0 1024 1024" version="1.1" xmlns="http://www.w3.org/2000/svg" p-id="3152" xmlns:xlink="http://www.w3.org/1999/xlink" width="32" height="32"><defs><style type="text/css"></style></defs><path d="M765.676 492.012C765.676 157.624 512 19.262 512 19.262s-253.676 138.362-253.676 472.75c-69.181 0-207.554 196.024 23.061 322.856a96.85 96.85 0 0 1 46.08-115.302s0 57.651 57.661 103.772h253.666c57.661-46.08 57.661-103.772 57.661-103.772a96.85 96.85 0 0 1 46.08 115.302c230.697-126.832 92.324-322.856 23.143-322.856z m20.295 210.544a162.59 162.59 0 0 0-62.003-57.948 67.256 67.256 0 0 0-29.952-7.24 56.627 56.627 0 0 0-31.304 9.145 58.716 58.716 0 0 0-27.699 52.224 81.623 81.623 0 0 1-20.48 43.13H409.467a81.623 81.623 0 0 1-20.48-43.13 58.716 58.716 0 0 0-27.7-52.224 56.627 56.627 0 0 0-31.293-9.145 67.297 67.297 0 0 0-29.962 7.24 162.59 162.59 0 0 0-62.003 57.948A99.185 99.185 0 0 1 215.5 631.43c3.911-41.113 33.567-72.704 46.203-78.07a61.44 61.44 0 0 0 58.091-61.347c0-229.376 131.584-353.936 192.236-399.156 60.661 45.22 192.235 169.749 192.235 399.156a61.44 61.44 0 0 0 58.092 61.347c12.636 5.335 42.291 36.957 46.203 78.07a99.185 99.185 0 0 1-22.59 71.127zM512 236.74a112.64 112.64 0 1 0 112.64 112.64A112.763 112.763 0 0 0 512 236.739z m0 184.32a71.68 71.68 0 1 1 71.68-71.68 71.772 71.772 0 0 1-71.68 71.68z m0 419.84a30.72 30.72 0 0 0-30.72 30.72v102.4a30.72 30.72 0 0 0 61.44 0v-102.4a30.72 30.72 0 0 0-30.72-30.72z m-92.16 0a30.72 30.72 0 0 0-30.72 30.72v40.96a30.72 30.72 0 0 0 61.44 0v-40.96a30.72 30.72 0 0 0-30.72-30.72z m194.56 0a30.72 30.72 0 0 0-30.72 30.72v40.96a30.72 30.72 0 0 0 61.44 0v-40.96a30.72 30.72 0 0 0-30.72-30.72z" p-id="3153"></path></svg>